<svg width="55" height="73" viewBox="0 0 55 73" fill="none" xmlns="http://www.w3.org/2000/svg">
<g clip-path="url(#clip0_18_1533)">
<mask id="mask0_18_1533" style="mask-type:alpha" maskUnits="userSpaceOnUse" x="6" y="7" width="43" height="52">
<path d="M32.4302 37.5283V41.3492H33.2618C41.5282 41.3492 48.2295 48.0473 48.2295 56.3098V58.1798H6.65234V56.3098C6.65234 48.0473 13.3537 41.3492 21.6201 41.3492H22.4517V37.5283C18.8683 35.8268 16.2925 32.3494 15.8628 28.2341C14.6519 28.063 13.7205 27.0229 13.7205 25.7654V22.8564C13.7205 21.6209 14.6195 20.5953 15.7993 20.3974V19.1162C15.7993 12.6899 21.0115 7.48027 27.4409 7.48027C33.8704 7.48027 39.0826 12.6899 39.0826 19.1162V20.3974C40.2624 20.5953 41.1614 21.6209 41.1614 22.8564V25.7654C41.1614 27.0229 40.23 28.063 39.0191 28.2341C38.5894 32.3494 36.0136 35.8268 32.4302 37.5283Z" fill="white"/>
</mask>
<g mask="url(#mask0_18_1533)">
<path d="M32.4302 37.5283V41.3492H33.2618C41.5282 41.3492 48.2295 48.0473 48.2295 56.3098V58.1798H6.65234V56.3098C6.65234 48.0473 13.3537 41.3492 21.6201 41.3492H22.4517V37.5283C18.8683 35.8268 16.2925 32.3494 15.8628 28.2341C14.6519 28.063 13.7205 27.0229 13.7205 25.7654V22.8564C13.7205 21.6209 14.6195 20.5953 15.7993 20.3974V19.1162C15.7993 12.6899 21.0115 7.48027 27.4409 7.48027C33.8704 7.48027 39.0826 12.6899 39.0826 19.1162V20.3974C40.2624 20.5953 41.1614 21.6209 41.1614 22.8564V25.7654C41.1614 27.0229 40.23 28.063 39.0191 28.2341C38.5894 32.3494 36.0136 35.8268 32.4302 37.5283Z" fill="#D0C6AC"/>
<path d="M61.5343 7.48027H6.65234V65.6601H61.5343V7.48027Z" fill="#EDB98A"/>
<path fill-rule="evenodd" clip-rule="evenodd" d="M39.0826 23.8953V28.6744C39.0826 35.1007 33.8704 40.3103 27.4409 40.3103C21.0114 40.3103 15.7993 35.1007 15.7993 28.6744V23.8953V27.0121C15.7993 33.4384 21.0114 38.648 27.4409 38.648C33.8704 38.648 39.0826 33.4384 39.0826 27.0121V23.8953Z" fill="black" fill-opacity="0.1"/>
</g>
<mask id="mask1_18_1533" style="mask-type:alpha" maskUnits="userSpaceOnUse" x="6" y="41" width="43" height="18">
<path fill-rule="evenodd" clip-rule="evenodd" d="M34.4309 41.4049C42.151 42.0011 48.2295 48.4513 48.2295 56.3205V58.1798H6.65234V56.3205C6.65234 48.3796 12.8422 41.8837 20.6624 41.3901C20.6086 41.6139 20.5807 41.8431 20.5807 42.0765C20.5807 44.5437 23.6987 46.5439 27.5449 46.5439C31.3911 46.5439 34.5091 44.5437 34.5091 42.0765C34.5091 41.8482 34.4824 41.624 34.4309 41.4049L34.4309 41.4049Z" fill="white"/>
</mask>
<g mask="url(#mask1_18_1533)">
<path fill-rule="evenodd" clip-rule="evenodd" d="M34.4309 41.4049C42.151 42.0011 48.2295 48.4513 48.2295 56.3205V58.1798H6.65234V56.3205C6.65234 48.3796 12.8422 41.8837 20.6624 41.3901C20.6086 41.6139 20.5807 41.8431 20.5807 42.0765C20.5807 44.5437 23.6987 46.5439 27.5449 46.5439C31.3911 46.5439 34.5091 44.5437 34.5091 42.0765C34.5091 41.8482 34.4824 41.624 34.4309 41.4049L34.4309 41.4049Z" fill="#E6E6E6"/>
<path d="M54.8819 35.3235H0V58.1798H54.8819V35.3235Z" fill="#25557C"/>
<path fill-rule="evenodd" clip-rule="evenodd" d="M29.7138 52.6509C28.8652 52.9377 27.9363 53.3415 27.4467 54.1207C27.0627 54.7321 27.0369 54.0261 26.5007 54.2439C25.9795 54.4556 26.122 55.3292 25.9328 55.7611C25.7855 55.5135 25.7159 55.2381 25.5304 55.0121C25.6746 54.9196 25.8082 54.7953 25.9076 54.6538C25.94 54.5875 24.9113 54.7262 24.8523 54.7431C24.559 54.8266 24.2828 54.9034 24.0025 55.0402C24.0767 54.9328 24.1493 54.8247 24.2209 54.7157C24.2853 54.6176 24.3487 54.5186 24.4109 54.4191C24.454 54.2778 24.5308 54.2774 24.6412 54.4179C24.7969 54.4254 24.8861 54.492 25.0491 54.4547C25.6551 54.3161 25.8481 53.1616 25.1011 53.2106C25.4294 52.6145 25.7207 52.0091 25.9852 51.3817C26.0897 52.2733 27.2491 51.9662 27.5899 51.4907C28.0349 50.8697 27.4645 49.6909 26.6579 49.8053C26.7786 49.5195 26.9012 49.2313 27.0007 48.9372C27.2279 49.2718 27.6248 49.4339 27.9442 49.6553C28.2791 49.8875 28.5623 50.1624 28.8096 50.4877C29.3058 51.1403 29.5981 51.9438 30.1016 52.5766C29.969 52.5836 29.8398 52.6084 29.7138 52.6509ZM31.5859 51.7391C31.4545 50.5428 30.5155 49.3286 29.6236 48.5857C29.0936 48.1442 27.4947 47.0512 26.8574 47.8917C27.3712 48.1143 27.9382 48.168 28.4476 48.4089C29.1379 48.7356 29.6787 49.2731 30.1458 49.8749C30.798 50.7152 31.8027 52.427 30.2444 52.864C30.352 52.7938 30.4144 52.7167 30.4996 52.5922C30.2903 52.5439 30.3749 52.2021 30.3012 51.9789C30.2156 51.719 30.0498 51.4663 29.9095 51.2345C29.687 50.8665 29.4424 50.5002 29.1811 50.1601C28.8323 49.7059 28.4149 49.3484 27.9386 49.039C27.7501 48.9166 27.5696 48.8082 27.3531 48.7449C27.0725 48.663 27.1644 48.7628 27.0876 48.5067C27.0396 48.3462 27.0828 48.1405 27.0366 47.9682C26.6264 48.3128 26.493 48.8107 26.3091 49.2941C26.097 49.8518 25.8678 50.4027 25.6446 50.9557C25.0967 52.3136 24.3903 53.5313 23.5883 54.7472C23.4488 54.959 23.1382 55.3601 23.3617 55.6144C23.5615 55.8419 23.8462 55.678 24.0657 55.5856C24.3643 55.46 24.7694 55.1359 25.0916 55.3057C25.507 55.5247 25.3107 56.3414 25.9676 56.3088C26.6149 56.2766 26.4931 55.2117 26.7008 54.7882C27.1814 55.1384 27.5688 54.9211 27.8606 54.4535C28.1987 53.9114 28.6455 53.6937 29.2147 53.4276C29.4475 53.3187 29.8454 53.0246 30.0879 52.988C30.2886 52.9579 30.4814 53.1716 30.7496 53.1619C31.3936 53.1384 31.6626 52.2782 31.5859 51.7391Z" fill="white"/>
<path fill-rule="evenodd" clip-rule="evenodd" d="M27.1369 52.3273C26.6327 52.2348 25.9297 52.3119 25.8836 52.9825C25.8553 53.3934 26.1765 53.7821 26.5242 53.9516C27.589 54.4709 28.4178 52.5618 27.1369 52.3273Z" fill="white"/>
<path fill-rule="evenodd" clip-rule="evenodd" d="M29.174 51.5635C29.0387 51.4168 28.8198 51.3059 28.6177 51.3573C28.6825 51.3127 28.736 51.2324 28.7975 51.1829C28.1413 50.7079 27.729 51.9058 28.1018 52.3773C28.6668 53.092 29.7726 52.218 29.174 51.5635Z" fill="white"/>
</g>
<mask id="mask2_18_1533" style="mask-type:alpha" maskUnits="userSpaceOnUse" x="23" y="30" width="9" height="5">
<path fill-rule="evenodd" clip-rule="evenodd" d="M23.5155 30.9866C23.7354 32.9588 25.409 34.4923 27.4409 34.4923C29.479 34.4923 31.1566 32.9493 31.3682 30.9683C31.3852 30.8089 31.2071 30.5444 30.9838 30.5444C27.8876 30.5444 25.5154 30.5444 23.9249 30.5444C23.7003 30.5444 23.4935 30.7893 23.5155 30.9866Z" fill="white"/>
</mask>
<g mask="url(#mask2_18_1533)">
<path fill-rule="evenodd" clip-rule="evenodd" d="M23.5155 30.9866C23.7354 32.9588 25.409 34.4923 27.4409 34.4923C29.479 34.4923 31.1566 32.9493 31.3682 30.9683C31.3852 30.8089 31.2071 30.5444 30.9838 30.5444C27.8876 30.5444 25.5154 30.5444 23.9249 30.5444C23.7003 30.5444 23.4935 30.7893 23.5155 30.9866Z" fill="black" fill-opacity="0.7"/>
<path d="M29.7275 28.2587H25.3619C24.7879 28.2587 24.3225 28.7239 24.3225 29.2977V30.5444C24.3225 31.1182 24.7879 31.5833 25.3619 31.5833H29.7275C30.3016 31.5833 30.767 31.1182 30.767 30.5444V29.2977C30.767 28.7239 30.3016 28.2587 29.7275 28.2587Z" fill="white"/>
<path d="M26.4015 37.4013C27.6644 37.4013 28.6882 36.378 28.6882 35.1157C28.6882 33.8533 27.6644 32.83 26.4015 32.83C25.1386 32.83 24.1147 33.8533 24.1147 35.1157C24.1147 36.378 25.1386 37.4013 26.4015 37.4013Z" fill="#FF4F6D"/>
<path d="M28.4803 37.4013C29.7433 37.4013 30.7671 36.378 30.7671 35.1157C30.7671 33.8533 29.7433 32.83 28.4803 32.83C27.2174 32.83 26.1936 33.8533 26.1936 35.1157C26.1936 36.378 27.2174 37.4013 28.4803 37.4013Z" fill="#FF4F6D"/>
</g>
<path fill-rule="evenodd" clip-rule="evenodd" d="M24.9463 27.012C24.9463 27.9301 26.0632 28.6743 27.4409 28.6743C28.8187 28.6743 29.9356 27.9301 29.9356 27.012" fill="black" fill-opacity="0.16"/>
<mask id="mask3_18_1533" style="mask-type:alpha" maskUnits="userSpaceOnUse" x="19" y="21" width="6" height="4">
<path fill-rule="evenodd" clip-rule="evenodd" d="M22.0359 24.3208C24.0337 24.3208 24.9463 25.2458 24.9463 23.8042C24.9463 22.3627 23.6433 21.4018 22.0359 21.4018C20.4285 21.4018 19.1255 22.3627 19.1255 23.8042C19.1255 25.2458 20.0381 24.3208 22.0359 24.3208Z" fill="white"/>
</mask>
<g mask="url(#mask3_18_1533)">
<path fill-rule="evenodd" clip-rule="evenodd" d="M22.0359 24.3208C24.0337 24.3208 24.9463 25.2458 24.9463 23.8042C24.9463 22.3627 23.6433 21.4018 22.0359 21.4018C20.4285 21.4018 19.1255 22.3627 19.1255 23.8042C19.1255 25.2458 20.0381 24.3208 22.0359 24.3208Z" fill="white"/>
<path d="M22.0359 24.7264C22.7248 24.7264 23.2832 24.1682 23.2832 23.4797C23.2832 22.7912 22.7248 22.233 22.0359 22.233C21.347 22.233 20.7886 22.7912 20.7886 23.4797C20.7886 24.1682 21.347 24.7264 22.0359 24.7264Z" fill="black" fill-opacity="0.7"/>
</g>
<mask id="mask4_18_1533" style="mask-type:alpha" maskUnits="userSpaceOnUse" x="29" y="21" width="7" height="4">
<path fill-rule="evenodd" clip-rule="evenodd" d="M32.846 24.3208C34.8437 24.3208 35.7564 25.2458 35.7564 23.8042C35.7564 22.3627 34.4533 21.4019 32.846 21.4019C31.2386 21.4019 29.9355 22.3627 29.9355 23.8042C29.9355 25.2458 30.8482 24.3208 32.846 24.3208Z" fill="white"/>
</mask>
<g mask="url(#mask4_18_1533)">
<path fill-rule="evenodd" clip-rule="evenodd" d="M32.846 24.3208C34.8437 24.3208 35.7564 25.2458 35.7564 23.8042C35.7564 22.3627 34.4533 21.4019 32.846 21.4019C31.2386 21.4019 29.9355 22.3627 29.9355 23.8042C29.9355 25.2458 30.8482 24.3208 32.846 24.3208Z" fill="white"/>
<path d="M32.8459 24.7264C33.5348 24.7264 34.0933 24.1683 34.0933 23.4797C34.0933 22.7912 33.5348 22.233 32.8459 22.233C32.1571 22.233 31.5986 22.7912 31.5986 23.4797C31.5986 24.1683 32.1571 24.7264 32.8459 24.7264Z" fill="black" fill-opacity="0.7"/>
</g>
<path fill-rule="evenodd" clip-rule="evenodd" d="M23.836 19.3429C22.797 19.4181 21.7733 19.3606 20.7349 19.3175C19.9387 19.2845 19.1305 19.1758 18.3704 19.5277C18.2249 19.595 17.4287 20.0012 17.4472 20.2235C17.462 20.4012 18.2654 20.6789 18.41 20.7297C19.1727 20.9978 19.9028 20.9158 20.6871 20.8688C21.6492 20.8112 22.607 20.8536 23.5686 20.8246C24.2162 20.8053 25.2144 20.6956 25.5345 19.9108C25.6309 19.6744 25.5563 19.2016 25.4597 18.9431C25.4212 18.8401 25.3099 18.8013 25.2257 18.8606C24.9244 19.0732 24.3399 19.3065 23.836 19.3429Z" fill="black" fill-opacity="0.6"/>
<path fill-rule="evenodd" clip-rule="evenodd" d="M31.0459 19.3429C32.0848 19.4181 33.1086 19.3606 34.147 19.3175C34.9431 19.2845 35.7513 19.1758 36.5114 19.5277C36.657 19.595 37.4532 20.0012 37.4346 20.2235C37.4199 20.4012 36.6165 20.6789 36.4718 20.7297C35.7092 20.9978 34.9791 20.9158 34.1947 20.8688C33.2326 20.8112 32.2749 20.8536 31.3132 20.8246C30.6656 20.8053 29.6674 20.6956 29.3474 19.9108C29.251 19.6744 29.3255 19.2016 29.4221 18.9431C29.4607 18.8401 29.572 18.8013 29.6561 18.8606C29.9574 19.0732 30.5419 19.3065 31.0459 19.3429Z" fill="black" fill-opacity="0.6"/>
<mask id="mask5_18_1533" style="mask-type:alpha" maskUnits="userSpaceOnUse" x="0" y="0" width="55" height="59">
<path d="M54.8819 0H0V58.1798H54.8819V0Z" fill="white"/>
</mask>
<g mask="url(#mask5_18_1533)">
<mask id="mask6_18_1533" style="mask-type:alpha" maskUnits="userSpaceOnUse" x="15" y="20" width="25" height="19">
<path fill-rule="evenodd" clip-rule="evenodd" d="M31.0642 35.3585C30.5416 35.8352 29.985 36.0495 29.2815 35.8996C29.1604 35.8739 28.6668 34.9567 27.441 34.9567C26.2152 34.9567 25.7217 35.8739 25.6006 35.8996C24.897 36.0495 24.3404 35.8352 23.8179 35.3585C22.8356 34.4623 22.0187 33.2266 22.5095 31.8782C22.7654 31.1755 23.1814 30.4039 23.9383 30.18C24.7465 29.9409 25.8813 30.1795 26.6957 30.0163C26.9596 29.9634 27.2479 29.8693 27.441 29.7133C27.6342 29.8693 27.9225 29.9634 28.1862 30.0163C29.0008 30.1795 30.1355 29.9409 30.9437 30.18C31.7006 30.4039 32.1167 31.1755 32.3726 31.8782C32.8634 33.2266 32.0465 34.4623 31.0642 35.3585ZM39.0995 20.363C38.3906 22.1084 38.6644 24.2814 38.5332 26.1136C38.4266 27.6029 38.1133 29.835 36.7903 30.7968C36.1137 31.2886 34.8822 32.1153 33.9982 31.8847C33.3896 31.726 33.3247 29.9813 32.525 29.3283C31.6178 28.5876 30.4851 28.2621 29.343 28.3124C28.8502 28.3341 27.8535 28.3289 27.441 28.7077C27.0286 28.3289 26.0319 28.3341 25.5391 28.3124C24.397 28.2621 23.2642 28.5876 22.3571 29.3283C21.5574 29.9813 21.4925 31.726 20.884 31.8847C20 32.1153 18.7684 31.2886 18.0918 30.7968C16.7687 29.835 16.4556 27.6029 16.3489 26.1136C16.2177 24.2814 16.4915 22.1084 15.7826 20.363C15.4377 20.363 15.6652 23.7143 15.6652 23.7143V27.944C15.6717 31.1207 17.6569 35.8752 22.0585 37.6908C23.1349 38.1348 25.5733 38.8558 27.441 38.8558C29.3088 38.8558 31.7472 38.2034 32.8236 37.7594C37.2252 35.9439 39.2104 31.1207 39.217 27.944V23.7143C39.217 23.7143 39.4444 20.363 39.0995 20.363Z" fill="white"/>
</mask>
<g mask="url(#mask6_18_1533)">
<path fill-rule="evenodd" clip-rule="evenodd" d="M31.0642 35.3585C30.5416 35.8352 29.985 36.0495 29.2815 35.8996C29.1604 35.8739 28.6668 34.9567 27.441 34.9567C26.2152 34.9567 25.7217 35.8739 25.6006 35.8996C24.897 36.0495 24.3404 35.8352 23.8179 35.3585C22.8356 34.4623 22.0187 33.2266 22.5095 31.8782C22.7654 31.1755 23.1814 30.4039 23.9383 30.18C24.7465 29.9409 25.8813 30.1795 26.6957 30.0163C26.9596 29.9634 27.2479 29.8693 27.441 29.7133C27.6342 29.8693 27.9225 29.9634 28.1862 30.0163C29.0008 30.1795 30.1355 29.9409 30.9437 30.18C31.7006 30.4039 32.1167 31.1755 32.3726 31.8782C32.8634 33.2266 32.0465 34.4623 31.0642 35.3585ZM39.0995 20.363C38.3906 22.1084 38.6644 24.2814 38.5332 26.1136C38.4266 27.6029 38.1133 29.835 36.7903 30.7968C36.1137 31.2886 34.8822 32.1153 33.9982 31.8847C33.3896 31.726 33.3247 29.9813 32.525 29.3283C31.6178 28.5876 30.4851 28.2621 29.343 28.3124C28.8502 28.3341 27.8535 28.3289 27.441 28.7077C27.0286 28.3289 26.0319 28.3341 25.5391 28.3124C24.397 28.2621 23.2642 28.5876 22.3571 29.3283C21.5574 29.9813 21.4925 31.726 20.884 31.8847C20 32.1153 18.7684 31.2886 18.0918 30.7968C16.7687 29.835 16.4556 27.6029 16.3489 26.1136C16.2177 24.2814 16.4915 22.1084 15.7826 20.363C15.4377 20.363 15.6652 23.7143 15.6652 23.7143V27.944C15.6717 31.1207 17.6569 35.8752 22.0585 37.6908C23.1349 38.1348 25.5733 38.8558 27.441 38.8558C29.3088 38.8558 31.7472 38.2034 32.8236 37.7594C37.2252 35.9439 39.2104 31.1207 39.217 27.944V23.7143C39.217 23.7143 39.4444 20.363 39.0995 20.363Z" fill="#331B0C"/>
<path d="M58.2081 14.9605H3.32617V65.6601H58.2081V14.9605Z" fill="#724133"/>
</g>
<mask id="mask7_18_1533" style="mask-type:alpha" maskUnits="userSpaceOnUse" x="3" y="2" width="50" height="56">
<path fill-rule="evenodd" clip-rule="evenodd" d="M20.9378 41.3645C21.1639 41.3543 21.3914 41.3492 21.6201 41.3492H22.4516V37.5282C20.0045 36.3663 18.0273 34.3762 16.8826 31.9203C16.3079 30.1316 16.3421 28.1937 16.2152 26.3526C16.0478 23.9255 16.1919 21.5573 16.7424 19.1677C17.2391 17.0118 17.9532 15.8554 19.5751 14.1278C20.4813 13.1625 21.8421 13.1066 23.1964 12.7641C24.5671 12.4172 25.8182 11.8893 26.6754 10.896C28.5636 13.0593 33.6092 12.2807 35.4558 14.6383C37.7012 17.5053 37.7264 19.3551 37.9905 22.6676C38.1886 25.1509 37.8807 29.6418 37.7944 32.3376C36.6264 34.6014 34.7371 36.4329 32.4301 37.5282V41.3492H33.2617C34.6411 41.3492 35.977 41.5357 37.2455 41.8849C36.8192 42.5444 36.3112 43.1688 35.7796 43.7494C34.9831 44.6195 34.1827 45.5195 33.2849 46.319C32.2577 47.2336 31.2751 47.8975 30.6515 49.0372C30.3692 49.5531 29.8746 50.0956 30.398 50.6615C30.876 51.1783 31.6296 51.0718 32.1411 50.698C32.8973 50.1453 33.4587 49.2728 34.1555 48.6376C33.4825 49.8459 32.5461 51.6473 33.0269 53.0022C33.1904 53.4628 33.3564 53.4537 33.6092 53.7607C34.0083 53.7697 34.166 53.9502 34.0825 54.302C34.1199 54.4026 34.1573 54.503 34.1948 54.6036C34.4974 55.1426 35.0766 55.5201 35.8121 55.2661C38.2153 54.4361 35.4431 50.7028 38.089 49.593C38.5625 50.181 37.8633 51.8327 37.8444 52.5552C37.8212 53.4461 37.8697 55.4669 39.2251 55.7092C40.9913 56.0251 40.3101 54.3385 40.3798 53.621C40.4608 52.7865 40.9745 51.6861 41.3925 50.9471C41.1382 51.7323 40.6631 53.4723 41.9779 53.8289C43.4991 54.2416 43.3253 52.4606 43.5561 51.7198C43.6037 52.816 45.0208 55.4079 46.3013 53.3605C46.961 52.3058 46.511 50.5678 46.4387 49.4431C47.3562 50.3905 48.0893 49.1624 48.0682 48.481C48.417 49.4684 49.7278 52.2216 50.8894 50.0362C51.5957 48.7074 50.8424 46.9226 50.3731 45.6396C51.6088 45.7477 51.3606 44.5516 51.1765 43.9575C50.9049 43.0804 51.0498 42.9516 51.1058 42.0447C52.8208 43.0431 52.7683 40.3339 52.6736 39.6694C52.4355 37.9963 51.1334 36.4982 50.1286 35.0871C49.408 34.075 48.0632 32.3128 48.4575 31.0923C48.8642 31.6051 49.8103 31.5998 50.1863 31.0628C50.5047 30.6082 50.1673 29.8585 50.0136 29.4042C49.5935 28.1616 48.754 27.3588 47.995 26.2914C46.5173 24.2134 46.7299 21.4848 46.5932 19.1617C46.4228 16.2634 45.8004 13.4102 43.1672 11.3018C41.7563 10.1722 40.0369 9.24191 38.7246 8.04337C38.3668 7.71654 38.2155 7.31163 37.8795 6.99657C37.5025 6.64299 37.3265 6.72673 37.0151 6.22339C36.4604 5.32691 35.8089 4.48751 34.4683 4.44541C33.5912 4.418 32.4819 5.15784 31.6914 5.04972C31.0423 4.96109 30.6324 4.03607 30.0997 3.72563C29.2753 3.24509 28.6999 3.43167 27.8188 3.70999C26.5072 4.12423 25.6714 4.26862 24.3357 3.77348C23.4267 3.43647 22.569 2.73308 21.4957 2.98315C20.6539 3.17944 20.2778 3.85853 19.782 4.37901C19.2704 4.91635 19.5176 4.73871 18.7697 4.85805C18.0046 4.98021 17.4004 5.09107 16.82 5.59186C15.8819 6.40131 16.5318 7.66031 15.7903 8.37388C15.3901 8.7591 14.5565 8.94258 14.093 9.3409C13.587 9.77567 13.1732 10.3041 12.7941 10.8184C12.0558 11.8205 11.5517 12.9125 11.0104 13.9935C10.0035 16.0051 9.10588 18.0808 8.72328 20.2421C8.52678 21.3529 8.19558 22.4396 7.99321 23.5483C7.83716 24.4033 7.90371 25.3397 7.59896 26.1698C7.23737 27.1547 6.37272 28.0598 5.90435 29.0284C5.28321 30.3132 4.86603 31.5457 4.73394 32.9287C4.60422 34.2885 4.96524 35.4868 5.12445 36.8199C5.21666 37.5922 5.05722 37.6799 4.5258 38.4089C4.11686 38.9698 3.70262 39.5253 3.43968 40.1497C2.94871 41.3163 2.97594 42.4514 3.83019 43.477C4.41642 44.1808 6.38696 44.9176 6.2256 43.3486C6.15069 42.6197 5.23372 42.2899 5.40886 41.4537C5.53011 40.8745 6.12074 40.4737 6.8377 40.2947C7.34415 40.1683 7.59354 40.1738 7.82202 40.7289C8.02914 41.2319 7.75456 42.3303 7.69094 42.8589C7.6654 43.0714 7.62766 43.2576 7.60201 43.4544C7.42156 44.8413 7.38834 46.1173 6.62877 47.3909C6.16221 48.1734 5.24931 49.276 6.29024 50.0302C7.1133 50.6267 8.53344 50.2632 9.17515 49.6391C9.85211 50.4759 9.7016 51.3894 9.44837 52.3131C9.2912 52.8866 8.86136 53.7265 9.53798 54.1901C10.4543 54.8179 11.95 53.829 12.637 53.33C13.0342 54.2166 13.4069 57.4496 14.9728 55.5224C15.4297 54.9603 16.1904 54.4121 16.3353 53.7493C16.5756 52.65 16.4031 51.493 16.5026 50.3826C17.0023 51.8366 17.342 52.4163 17.6479 53.9088C17.8318 54.8066 17.9039 57.8192 19.7629 57.4224C21.1934 57.1171 20.2785 55.2357 20.0958 54.4687C19.7459 52.9998 19.577 52.3779 19.2388 50.9072C19.7654 51.8684 20.2255 52.8546 20.7314 53.8234C21.2284 54.775 23.4503 56.738 24.1003 55.9115C24.7503 55.0851 23.1657 53.9075 22.8052 52.9069C22.055 50.8242 21.1461 48.7502 20.9306 46.568C20.827 45.5189 21.0214 44.55 21.1066 43.513C21.1647 42.8045 21.0772 42.0787 20.9378 41.3645Z" fill="white"/>
</mask>
<g mask="url(#mask7_18_1533)">
<path fill-rule="evenodd" clip-rule="evenodd" d="M20.9378 41.3645C21.1639 41.3543 21.3914 41.3492 21.6201 41.3492H22.4516V37.5282C20.0045 36.3663 18.0273 34.3762 16.8826 31.9203C16.3079 30.1316 16.3421 28.1937 16.2152 26.3526C16.0478 23.9255 16.1919 21.5573 16.7424 19.1677C17.2391 17.0118 17.9532 15.8554 19.5751 14.1278C20.4813 13.1625 21.8421 13.1066 23.1964 12.7641C24.5671 12.4172 25.8182 11.8893 26.6754 10.896C28.5636 13.0593 33.6092 12.2807 35.4558 14.6383C37.7012 17.5053 37.7264 19.3551 37.9905 22.6676C38.1886 25.1509 37.8807 29.6418 37.7944 32.3376C36.6264 34.6014 34.7371 36.4329 32.4301 37.5282V41.3492H33.2617C34.6411 41.3492 35.977 41.5357 37.2455 41.8849C36.8192 42.5444 36.3112 43.1688 35.7796 43.7494C34.9831 44.6195 34.1827 45.5195 33.2849 46.319C32.2577 47.2336 31.2751 47.8975 30.6515 49.0372C30.3692 49.5531 29.8746 50.0956 30.398 50.6615C30.876 51.1783 31.6296 51.0718 32.1411 50.698C32.8973 50.1453 33.4587 49.2728 34.1555 48.6376C33.4825 49.8459 32.5461 51.6473 33.0269 53.0022C33.1904 53.4628 33.3564 53.4537 33.6092 53.7607C34.0083 53.7697 34.166 53.9502 34.0825 54.302C34.1199 54.4026 34.1573 54.503 34.1948 54.6036C34.4974 55.1426 35.0766 55.5201 35.8121 55.2661C38.2153 54.4361 35.4431 50.7028 38.089 49.593C38.5625 50.181 37.8633 51.8327 37.8444 52.5552C37.8212 53.4461 37.8697 55.4669 39.2251 55.7092C40.9913 56.0251 40.3101 54.3385 40.3798 53.621C40.4608 52.7865 40.9745 51.6861 41.3925 50.9471C41.1382 51.7323 40.6631 53.4723 41.9779 53.8289C43.4991 54.2416 43.3253 52.4606 43.5561 51.7198C43.6037 52.816 45.0208 55.4079 46.3013 53.3605C46.961 52.3058 46.511 50.5678 46.4387 49.4431C47.3562 50.3905 48.0893 49.1624 48.0682 48.481C48.417 49.4684 49.7278 52.2216 50.8894 50.0362C51.5957 48.7074 50.8424 46.9226 50.3731 45.6396C51.6088 45.7477 51.3606 44.5516 51.1765 43.9575C50.9049 43.0804 51.0498 42.9516 51.1058 42.0447C52.8208 43.0431 52.7683 40.3339 52.6736 39.6694C52.4355 37.9963 51.1334 36.4982 50.1286 35.0871C49.408 34.075 48.0632 32.3128 48.4575 31.0923C48.8642 31.6051 49.8103 31.5998 50.1863 31.0628C50.5047 30.6082 50.1673 29.8585 50.0136 29.4042C49.5935 28.1616 48.754 27.3588 47.995 26.2914C46.5173 24.2134 46.7299 21.4848 46.5932 19.1617C46.4228 16.2634 45.8004 13.4102 43.1672 11.3018C41.7563 10.1722 40.0369 9.24191 38.7246 8.04337C38.3668 7.71654 38.2155 7.31163 37.8795 6.99657C37.5025 6.64299 37.3265 6.72673 37.0151 6.22339C36.4604 5.32691 35.8089 4.48751 34.4683 4.44541C33.5912 4.418 32.4819 5.15784 31.6914 5.04972C31.0423 4.96109 30.6324 4.03607 30.0997 3.72563C29.2753 3.24509 28.6999 3.43167 27.8188 3.70999C26.5072 4.12423 25.6714 4.26862 24.3357 3.77348C23.4267 3.43647 22.569 2.73308 21.4957 2.98315C20.6539 3.17944 20.2778 3.85853 19.782 4.37901C19.2704 4.91635 19.5176 4.73871 18.7697 4.85805C18.0046 4.98021 17.4004 5.09107 16.82 5.59186C15.8819 6.40131 16.5318 7.66031 15.7903 8.37388C15.3901 8.7591 14.5565 8.94258 14.093 9.3409C13.587 9.77567 13.1732 10.3041 12.7941 10.8184C12.0558 11.8205 11.5517 12.9125 11.0104 13.9935C10.0035 16.0051 9.10588 18.0808 8.72328 20.2421C8.52678 21.3529 8.19558 22.4396 7.99321 23.5483C7.83716 24.4033 7.90371 25.3397 7.59896 26.1698C7.23737 27.1547 6.37272 28.0598 5.90435 29.0284C5.28321 30.3132 4.86603 31.5457 4.73394 32.9287C4.60422 34.2885 4.96524 35.4868 5.12445 36.8199C5.21666 37.5922 5.05722 37.6799 4.5258 38.4089C4.11686 38.9698 3.70262 39.5253 3.43968 40.1497C2.94871 41.3163 2.97594 42.4514 3.83019 43.477C4.41642 44.1808 6.38696 44.9176 6.2256 43.3486C6.15069 42.6197 5.23372 42.2899 5.40886 41.4537C5.53011 40.8745 6.12074 40.4737 6.8377 40.2947C7.34415 40.1683 7.59354 40.1738 7.82202 40.7289C8.02914 41.2319 7.75456 42.3303 7.69094 42.8589C7.6654 43.0714 7.62766 43.2576 7.60201 43.4544C7.42156 44.8413 7.38834 46.1173 6.62877 47.3909C6.16221 48.1734 5.24931 49.276 6.29024 50.0302C7.1133 50.6267 8.53344 50.2632 9.17515 49.6391C9.85211 50.4759 9.7016 51.3894 9.44837 52.3131C9.2912 52.8866 8.86136 53.7265 9.53798 54.1901C10.4543 54.8179 11.95 53.829 12.637 53.33C13.0342 54.2166 13.4069 57.4496 14.9728 55.5224C15.4297 54.9603 16.1904 54.4121 16.3353 53.7493C16.5756 52.65 16.4031 51.493 16.5026 50.3826C17.0023 51.8366 17.342 52.4163 17.6479 53.9088C17.8318 54.8066 17.9039 57.8192 19.7629 57.4224C21.1934 57.1171 20.2785 55.2357 20.0958 54.4687C19.7459 52.9998 19.577 52.3779 19.2388 50.9072C19.7654 51.8684 20.2255 52.8546 20.7314 53.8234C21.2284 54.775 23.4503 56.738 24.1003 55.9115C24.7503 55.0851 23.1657 53.9075 22.8052 52.9069C22.055 50.8242 21.1461 48.7502 20.9306 46.568C20.827 45.5189 21.0214 44.55 21.1066 43.513C21.1647 42.8045 21.0772 42.0787 20.9378 41.3645Z" fill="#8D5A5A"/>
<path d="M58.0003 2.90898H3.11841V61.0888H58.0003V2.90898Z" fill="#4A312C"/>
<path fill-rule="evenodd" clip-rule="evenodd" d="M20.9378 41.3645C21.164 41.3544 21.3914 41.3493 21.6201 41.3493H22.4516V37.5283C20.0045 36.3664 18.0273 34.3763 16.8826 31.9203C16.9933 32.265 17.1266 32.6041 17.2881 32.9359C18.4845 35.3945 20.0439 37.5927 20.682 40.2251C20.7726 40.5986 20.8627 40.9799 20.9378 41.3645ZM37.2455 41.885C35.977 41.5358 34.6411 41.3493 33.2617 41.3493H32.4301V37.5283C34.6962 36.4523 36.5594 34.6661 37.7317 32.4575C37.7156 33.0796 37.7296 33.6983 37.8091 34.2961C38.0316 35.9676 38.641 37.4774 38.3582 39.1958C38.2033 40.1374 37.7916 41.04 37.2455 41.885Z" fill="black" fill-opacity="0.24"/>
<path fill-rule="evenodd" clip-rule="evenodd" d="M13.3797 25.4014C13.3537 24.8981 12.9681 23.212 13.4478 22.9207C13.9737 22.6011 13.8641 24.5219 13.8695 24.7187C13.8786 25.0382 14.1213 27.448 13.6768 27.4373C13.2336 27.4267 13.3968 25.7297 13.3797 25.4014ZM15.1331 37.401C15.1313 37.6117 14.9101 37.5989 14.7523 37.5438C14.5574 37.4757 14.6767 37.0277 14.6664 36.8807C14.6393 36.4945 14.4538 35.356 14.7371 35.0371C15.3037 34.3995 15.1353 37.1042 15.1331 37.401ZM9.79582 40.1361C10.1968 40.1247 9.82565 32.2752 9.20926 32.2839C8.77637 32.29 9.49232 40.1437 9.79582 40.1361ZM10.2598 44.1577C9.76141 44.1577 9.85304 45.916 10.1466 46.0566C10.5915 46.2696 10.8174 44.1577 10.2598 44.1577ZM13.4273 44.893C13.4317 45.1128 13.1823 45.1162 13.0159 45.0475C12.827 44.9695 12.9061 44.3192 12.8986 44.1748C12.8751 43.7204 12.4794 41.9574 12.8393 41.6334C13.2497 41.2641 13.2586 41.6694 13.369 41.9448C13.6941 42.7557 13.4098 44.0293 13.4273 44.893ZM42.667 28.328C42.6899 28.6319 42.8892 30.6173 42.558 30.7686C41.9879 31.0292 42.2335 29.8024 42.2357 29.6439C42.258 28.0986 42.0344 26.5662 41.8643 25.0292C41.832 24.7373 41.3185 22.489 41.6946 22.3027C42.2574 22.0239 42.1735 22.7693 42.2057 23.0112C42.4404 24.7708 42.5441 26.56 42.667 28.328ZM41.9978 35.2377C41.4713 35.1334 41.1958 36.9194 41.4361 37.111C41.8346 37.4289 42.5481 35.347 41.9978 35.2377ZM41.942 43.0916C41.7053 43.0445 39.981 46.3605 40.1229 46.548C40.3931 46.9052 42.79 43.2608 41.942 43.0916ZM37.6965 44.6236C37.3262 44.4569 35.7561 46.8576 36.1569 47.0379C36.5203 47.2012 38.1447 44.8246 37.6965 44.6236ZM46.447 35.6242C45.9999 35.6242 46.0198 38.0806 46.3638 38.2356C46.7196 38.3957 46.9755 35.6242 46.447 35.6242ZM40.151 13.058C40.0246 12.8772 38.6595 11.2668 39.6372 11.4969C40.1135 11.6089 40.7698 13.0247 40.9846 13.4523C41.1081 13.6979 41.8129 14.7944 41.0661 14.7168C40.8629 14.6958 40.3198 13.2996 40.151 13.058ZM35.3506 9.83999C35.1746 9.91912 35.1776 9.99338 35.3594 10.0627C35.5354 9.98353 35.5324 9.90937 35.3506 9.83999ZM17.799 11.5293C17.3821 11.9123 15.8151 14.1304 15.2781 14.1526C14.2997 14.1931 16.1675 12.2774 16.3794 12.0336C16.474 11.9243 16.8961 11.3913 17.1531 11.2602C17.4152 11.1264 18.2847 11.0817 17.799 11.5293ZM12.1102 17.4499C11.6564 17.3609 10.8972 19.5828 11.1621 19.851C11.5619 20.2561 12.6188 17.5508 12.1102 17.4499ZM17.2946 42.1788C17.3804 42.4574 18.2575 44.4809 18.037 44.7472C17.7 45.1539 17.6032 44.5775 17.4929 44.3384C17.2481 43.8075 16.6119 42.5004 16.7142 41.9415C16.8135 41.3995 17.208 41.8996 17.2946 42.1788ZM15.5886 46.9212C15.1115 46.9212 15.1666 48.9579 15.4506 49.079C15.8906 49.2664 16.1738 46.9212 15.5886 46.9212ZM49.2256 45.1822C49.2539 45.3075 49.6526 46.338 49.0878 46.1887C48.7631 46.1029 48.713 45.1945 48.6301 44.9192C48.3746 44.0702 47.5324 43.0153 47.4593 42.1776C47.3887 41.368 47.8419 41.6766 48.1901 42.3623C48.6549 43.2781 49.0035 44.2056 49.2256 45.1822ZM45.1298 45.0792C44.6866 45.0772 44.6651 47.3177 44.9423 47.4483C45.3298 47.6309 45.6951 45.0792 45.1298 45.0792ZM46.4105 26.7325C46.7393 26.6468 45.7017 23.9636 45.3341 23.9932C44.774 24.0384 45.9112 26.8611 46.4105 26.7325ZM40.8359 38.3876C40.6599 38.4668 40.6629 38.541 40.8447 38.6103C41.0207 38.5312 41.0177 38.4569 40.8359 38.3876ZM35.8013 49.8658C35.9663 49.8658 36.0344 49.6116 35.7907 49.6058C35.6296 49.6072 35.5445 49.8658 35.8013 49.8658ZM15.318 38.3631C15.3241 37.9665 14.8046 38.2573 14.8079 38.592C14.8147 39.2597 15.307 38.9548 15.318 38.3631ZM14.0362 28.4423C13.8691 28.4423 13.8006 28.6992 14.0468 28.7053C14.2098 28.7041 14.2958 28.4423 14.0362 28.4423ZM10.0589 41.4308C10.0427 41.0275 9.70544 41.4398 9.72431 41.4404C9.7842 41.4419 10.0715 41.7349 10.0589 41.4308ZM10.9347 20.3761C10.4425 20.3761 10.5139 21.5716 10.8281 21.6483C11.3519 21.7763 11.4235 20.3761 10.9347 20.3761ZM13.5569 46.196C13.0817 46.196 13.0496 47.8196 13.3775 47.9206C13.887 48.0773 14.0517 46.196 13.5569 46.196ZM9.65772 47.3609C9.47647 47.4422 9.47941 47.5187 9.66653 47.5902C9.84789 47.5089 9.84484 47.4326 9.65772 47.3609ZM44.9981 48.0571C44.5158 48.0571 44.5347 50.0422 44.8307 50.1763C45.2445 50.3638 45.5559 48.0571 44.9981 48.0571ZM40.1107 49.902C39.6096 49.8019 39.3471 51.4407 39.5806 51.6246C39.9657 51.9277 40.6254 50.0047 40.1107 49.902ZM35.8531 51.4167C35.4378 51.4167 35.5399 52.1594 35.7794 52.27C36.194 52.4612 36.3165 51.4167 35.8531 51.4167ZM21.0962 6.9627C20.7487 6.9627 18.5682 7.94847 19.3832 8.24053C19.8814 8.41904 21.9813 6.9627 21.0962 6.9627Z" fill="white" fill-opacity="0.3"/>
</g>
</g>
</g>
<path d="M3.51432 70.7519C3.41833 70.7519 3.33434 70.7189 3.26235 70.6529C3.19635 70.5809 3.16336 70.4969 3.16336 70.401V64.0745C3.16336 63.9786 3.19635 63.8976 3.26235 63.8316C3.33434 63.7596 3.41833 63.7236 3.51432 63.7236C3.61031 63.7236 3.69131 63.7596 3.7573 63.8316C3.82929 63.8976 3.86529 63.9786 3.86529 64.0745V67.1343L7.14998 63.8496C7.19798 63.8016 7.24297 63.7686 7.28497 63.7506C7.32697 63.7326 7.37496 63.7236 7.42896 63.7236C7.53695 63.7236 7.61794 63.7566 7.67193 63.8226C7.72593 63.8886 7.74993 63.9696 7.74393 64.0656C7.74393 64.1555 7.70793 64.2425 7.63594 64.3265L5.17017 66.7923L7.66293 70.194C7.71693 70.272 7.73793 70.356 7.72593 70.446C7.71993 70.5299 7.68693 70.6019 7.62694 70.6619C7.56694 70.7219 7.49495 70.7519 7.41096 70.7519C7.27897 70.7519 7.17998 70.7009 7.11399 70.5989L4.66622 67.2872L3.86529 68.0972V70.401C3.86529 70.4969 3.82929 70.5809 3.7573 70.6529C3.69131 70.7189 3.61031 70.7519 3.51432 70.7519ZM10.603 70.7969C10.141 70.7969 9.72707 70.6889 9.3611 70.4729C8.99514 70.251 8.70416 69.951 8.48818 69.573C8.2782 69.1951 8.17321 68.7691 8.17321 68.2952C8.17321 67.8152 8.2812 67.3862 8.49718 67.0083C8.71916 66.6303 9.01913 66.3333 9.3971 66.1174C9.77506 65.8954 10.201 65.7844 10.675 65.7844C11.1489 65.7844 11.5719 65.8954 11.9439 66.1174C12.3218 66.3333 12.6188 66.6303 12.8348 67.0083C13.0568 67.3862 13.1707 67.8152 13.1767 68.2952L12.8978 68.5111C12.8978 68.9431 12.7958 69.3331 12.5918 69.681C12.3938 70.023 12.1208 70.296 11.7729 70.4999C11.4309 70.6979 11.0409 70.7969 10.603 70.7969ZM10.675 70.167C11.0229 70.167 11.3319 70.086 11.6019 69.924C11.8779 69.762 12.0938 69.54 12.2498 69.2581C12.4118 68.9701 12.4928 68.6491 12.4928 68.2952C12.4928 67.9352 12.4118 67.6142 12.2498 67.3322C12.0938 67.0503 11.8779 66.8283 11.6019 66.6663C11.3319 66.4983 11.0229 66.4143 10.675 66.4143C10.333 66.4143 10.024 66.4983 9.74807 66.6663C9.47209 66.8283 9.25311 67.0503 9.09113 67.3322C8.92914 67.6142 8.84815 67.9352 8.84815 68.2952C8.84815 68.6491 8.92914 68.9701 9.09113 69.2581C9.25311 69.54 9.47209 69.762 9.74807 69.924C10.024 70.086 10.333 70.167 10.675 70.167ZM12.8258 70.7519C12.7238 70.7519 12.6398 70.7219 12.5738 70.6619C12.5078 70.5959 12.4748 70.5119 12.4748 70.41V68.8711L12.6458 68.1602L13.1767 68.2952V70.41C13.1767 70.5119 13.1437 70.5959 13.0778 70.6619C13.0118 70.7219 12.9278 70.7519 12.8258 70.7519ZM16.7652 70.7969C16.2913 70.7969 15.8653 70.6889 15.4873 70.4729C15.1094 70.251 14.8094 69.951 14.5874 69.573C14.3715 69.1951 14.2635 68.7661 14.2635 68.2862C14.2635 67.8122 14.3685 67.3862 14.5784 67.0083C14.7944 66.6303 15.0854 66.3333 15.4513 66.1174C15.8173 65.8954 16.2313 65.7844 16.6932 65.7844C17.0952 65.7844 17.4582 65.8714 17.7821 66.0454C18.1061 66.2133 18.3671 66.4383 18.5651 66.7203V64.0745C18.5651 63.9666 18.5981 63.8826 18.664 63.8226C18.73 63.7566 18.814 63.7236 18.916 63.7236C19.018 63.7236 19.102 63.7566 19.168 63.8226C19.234 63.8826 19.267 63.9666 19.267 64.0745V68.3222C19.255 68.7901 19.138 69.2131 18.916 69.591C18.7 69.963 18.4031 70.257 18.0251 70.4729C17.6531 70.6889 17.2332 70.7969 16.7652 70.7969ZM16.7652 70.167C17.1132 70.167 17.4222 70.086 17.6921 69.924C17.9681 69.756 18.1841 69.531 18.3401 69.2491C18.5021 68.9671 18.5831 68.6461 18.5831 68.2862C18.5831 67.9322 18.5021 67.6142 18.3401 67.3322C18.1841 67.0443 17.9681 66.8193 17.6921 66.6573C17.4222 66.4953 17.1132 66.4143 16.7652 66.4143C16.4233 66.4143 16.1143 66.4953 15.8383 66.6573C15.5623 66.8193 15.3434 67.0443 15.1814 67.3322C15.0194 67.6142 14.9384 67.9322 14.9384 68.2862C14.9384 68.6461 15.0194 68.9671 15.1814 69.2491C15.3434 69.531 15.5623 69.756 15.8383 69.924C16.1143 70.086 16.4233 70.167 16.7652 70.167ZM21.3821 70.7519C21.2741 70.7519 21.1871 70.7219 21.1211 70.6619C21.0611 70.5959 21.0311 70.5089 21.0311 70.401V66.1804C21.0311 66.0724 21.0611 65.9884 21.1211 65.9284C21.1871 65.8624 21.2741 65.8294 21.3821 65.8294C21.4841 65.8294 21.5651 65.8624 21.6251 65.9284C21.691 65.9884 21.724 66.0724 21.724 66.1804V70.401C21.724 70.5089 21.691 70.5959 21.6251 70.6619C21.5651 70.7219 21.4841 70.7519 21.3821 70.7519ZM21.3731 64.8935C21.2411 64.8935 21.1271 64.8455 21.0311 64.7495C20.9351 64.6535 20.8871 64.5365 20.8871 64.3985C20.8871 64.2485 20.9351 64.1315 21.0311 64.0476C21.1331 63.9576 21.2501 63.9126 21.3821 63.9126C21.5081 63.9126 21.6191 63.9576 21.715 64.0476C21.817 64.1315 21.868 64.2485 21.868 64.3985C21.868 64.5365 21.82 64.6535 21.724 64.7495C21.6281 64.8455 21.5111 64.8935 21.3731 64.8935ZM23.7764 67.7192C23.7944 67.3472 23.8904 67.0143 24.0644 66.7203C24.2444 66.4263 24.4753 66.1954 24.7573 66.0274C25.0453 65.8594 25.3633 65.7754 25.7112 65.7754C25.9872 65.7754 26.2002 65.8144 26.3502 65.8924C26.5002 65.9704 26.5572 66.0844 26.5212 66.2343C26.4972 66.3243 26.4552 66.3843 26.3952 66.4143C26.3412 66.4443 26.2722 66.4563 26.1882 66.4503C26.1102 66.4443 26.0202 66.4383 25.9182 66.4323C25.5822 66.4023 25.2823 66.4383 25.0183 66.5403C24.7603 66.6363 24.5533 66.7863 24.3974 66.9903C24.2474 67.1943 24.1724 67.4372 24.1724 67.7192H23.7764ZM23.8304 70.7519C23.7224 70.7519 23.6384 70.7219 23.5784 70.6619C23.5184 70.6019 23.4884 70.5179 23.4884 70.41V66.1714C23.4884 66.0634 23.5184 65.9794 23.5784 65.9194C23.6384 65.8594 23.7224 65.8294 23.8304 65.8294C23.9384 65.8294 24.0224 65.8594 24.0824 65.9194C24.1424 65.9794 24.1724 66.0634 24.1724 66.1714V70.41C24.1724 70.5179 24.1424 70.6019 24.0824 70.6619C24.0224 70.7219 23.9384 70.7519 23.8304 70.7519ZM29.4906 70.7969C29.0106 70.7969 28.5817 70.6889 28.2037 70.4729C27.8257 70.257 27.5288 69.96 27.3128 69.582C27.0968 69.2041 26.9888 68.7751 26.9888 68.2952C26.9888 67.8092 27.0968 67.3772 27.3128 66.9993C27.5288 66.6213 27.8257 66.3243 28.2037 66.1084C28.5817 65.8924 29.0106 65.7844 29.4906 65.7844C29.9705 65.7844 30.3965 65.8924 30.7685 66.1084C31.1464 66.3243 31.4434 66.6213 31.6594 66.9993C31.8754 67.3772 31.9864 67.8092 31.9924 68.2952C31.9924 68.7751 31.8814 69.2041 31.6594 69.582C31.4434 69.96 31.1464 70.257 30.7685 70.4729C30.3965 70.6889 29.9705 70.7969 29.4906 70.7969ZM29.4906 70.167C29.8386 70.167 30.1505 70.086 30.4265 69.924C30.7025 69.762 30.9185 69.54 31.0744 69.2581C31.2304 68.9761 31.3084 68.6551 31.3084 68.2952C31.3084 67.9352 31.2304 67.6142 31.0744 67.3322C30.9185 67.0443 30.7025 66.8193 30.4265 66.6573C30.1505 66.4953 29.8386 66.4143 29.4906 66.4143C29.1426 66.4143 28.8307 66.4953 28.5547 66.6573C28.2787 66.8193 28.0597 67.0443 27.8977 67.3322C27.7418 67.6142 27.6638 67.9352 27.6638 68.2952C27.6638 68.6551 27.7418 68.9761 27.8977 69.2581C28.0597 69.54 28.2787 69.762 28.5547 69.924C28.8307 70.086 29.1426 70.167 29.4906 70.167ZM34.7505 70.7519C34.6065 70.7519 34.4985 70.6739 34.4265 70.5179L32.4287 66.2793C32.3927 66.2014 32.3897 66.1234 32.4197 66.0454C32.4497 65.9674 32.5097 65.9074 32.5997 65.8654C32.6837 65.8234 32.7646 65.8174 32.8426 65.8474C32.9206 65.8774 32.9806 65.9314 33.0226 66.0094L34.9394 70.158H34.5705L36.4603 66.0094C36.4963 65.9254 36.5563 65.8714 36.6403 65.8474C36.7303 65.8174 36.8173 65.8204 36.9013 65.8564C36.9852 65.8984 37.0422 65.9614 37.0722 66.0454C37.1022 66.1234 37.0992 66.1984 37.0632 66.2703L35.0924 70.5179C35.0204 70.6739 34.9064 70.7519 34.7505 70.7519ZM38.4827 70.7519C38.3807 70.7519 38.2967 70.7189 38.2307 70.6529C38.1647 70.5869 38.1317 70.5029 38.1317 70.401V64.0745C38.1317 63.9726 38.1647 63.8886 38.2307 63.8226C38.2967 63.7566 38.3807 63.7236 38.4827 63.7236H40.1026C40.6185 63.7236 41.0895 63.8106 41.5154 63.9846C41.9474 64.1525 42.3194 64.3955 42.6313 64.7135C42.9433 65.0255 43.1833 65.3944 43.3513 65.8204C43.5252 66.2463 43.6122 66.7173 43.6122 67.2333C43.6122 67.7492 43.5252 68.2232 43.3513 68.6551C43.1833 69.0811 42.9433 69.453 42.6313 69.771C42.3194 70.083 41.9474 70.326 41.5154 70.4999C41.0895 70.6679 40.6185 70.7519 40.1026 70.7519H38.4827ZM38.8337 70.122H40.1026C40.6545 70.122 41.1405 69.999 41.5604 69.753C41.9864 69.501 42.3194 69.1591 42.5593 68.7271C42.7993 68.2892 42.9193 67.7912 42.9193 67.2333C42.9193 66.6753 42.7993 66.1804 42.5593 65.7484C42.3194 65.3104 41.9864 64.9685 41.5604 64.7225C41.1405 64.4765 40.6545 64.3535 40.1026 64.3535H38.8337V70.122ZM47.1987 70.7969C46.7127 70.7969 46.2808 70.6919 45.9028 70.4819C45.5308 70.266 45.2369 69.969 45.0209 69.591C44.8109 69.2131 44.7059 68.7811 44.7059 68.2952C44.7059 67.8032 44.8049 67.3712 45.0029 66.9993C45.2069 66.6213 45.4858 66.3243 45.8398 66.1084C46.1938 65.8924 46.6017 65.7844 47.0637 65.7844C47.5197 65.7844 47.9156 65.8894 48.2516 66.0994C48.5936 66.3033 48.8575 66.5883 49.0435 66.9543C49.2295 67.3202 49.3225 67.7372 49.3225 68.2052C49.3225 68.3012 49.2925 68.3791 49.2325 68.4391C49.1725 68.4931 49.0945 68.5201 48.9985 68.5201H45.1739V67.9442H49.0705L48.6835 68.2232C48.6895 67.8752 48.6265 67.5632 48.4946 67.2872C48.3626 67.0113 48.1736 66.7953 47.9276 66.6393C47.6876 66.4833 47.3997 66.4053 47.0637 66.4053C46.7217 66.4053 46.4218 66.4863 46.1638 66.6483C45.9058 66.8103 45.7048 67.0353 45.5608 67.3232C45.4228 67.6052 45.3539 67.9292 45.3539 68.2952C45.3539 68.6611 45.4318 68.9851 45.5878 69.2671C45.7498 69.549 45.9688 69.771 46.2448 69.933C46.5207 70.095 46.8387 70.176 47.1987 70.176C47.4147 70.176 47.6306 70.14 47.8466 70.068C48.0686 69.99 48.2456 69.894 48.3776 69.78C48.4436 69.726 48.5186 69.699 48.6025 69.699C48.6865 69.693 48.7585 69.714 48.8185 69.762C48.8965 69.834 48.9355 69.912 48.9355 69.996C48.9415 70.08 48.9085 70.152 48.8365 70.212C48.6385 70.38 48.3866 70.5209 48.0806 70.6349C47.7746 70.7429 47.4807 70.7969 47.1987 70.7969ZM52.0018 70.7519C51.8578 70.7519 51.7498 70.6739 51.6778 70.5179L49.68 66.2793C49.644 66.2014 49.641 66.1234 49.671 66.0454C49.701 65.9674 49.761 65.9074 49.851 65.8654C49.935 65.8234 50.016 65.8174 50.0939 65.8474C50.1719 65.8774 50.2319 65.9314 50.2739 66.0094L52.1908 70.158H51.8218L53.7116 66.0094C53.7476 65.9254 53.8076 65.8714 53.8916 65.8474C53.9816 65.8174 54.0686 65.8204 54.1526 65.8564C54.2366 65.8984 54.2936 65.9614 54.3236 66.0454C54.3535 66.1234 54.3505 66.1984 54.3146 66.2703L52.3437 70.5179C52.2717 70.6739 52.1578 70.7519 52.0018 70.7519Z" fill="#80007F"/>
<defs>
<clipPath id="clip0_18_1533">
<rect width="54.8819" height="58.1798" fill="white"/>
</clipPath>
</defs>
</svg>
