<svg width="52" height="8" viewBox="0 0 52 8" fill="none" xmlns="http://www.w3.org/2000/svg">
<path d="M0.514259 7.75192C0.418268 7.75192 0.334276 7.71893 0.262282 7.65293C0.196289 7.58094 0.163292 7.49695 0.163292 7.40096V1.07455C0.163292 0.978559 0.196289 0.897567 0.262282 0.831573C0.334276 0.75958 0.418268 0.723583 0.514259 0.723583C0.61025 0.723583 0.691242 0.75958 0.757236 0.831573C0.829229 0.897567 0.865226 0.978559 0.865226 1.07455V4.13426L4.14992 0.849571C4.19791 0.801576 4.24291 0.768579 4.2849 0.75058C4.3269 0.732582 4.3749 0.723583 4.42889 0.723583C4.53688 0.723583 4.61787 0.75658 4.67187 0.822574C4.72586 0.888567 4.74986 0.96956 4.74386 1.06555C4.74386 1.15554 4.70786 1.24253 4.63587 1.32653L2.1701 3.79229L4.66287 7.19398C4.71686 7.27197 4.73786 7.35596 4.72586 7.44595C4.71986 7.52994 4.68687 7.60194 4.62687 7.66193C4.56688 7.72193 4.49488 7.75192 4.41089 7.75192C4.2789 7.75192 4.17991 7.70093 4.11392 7.59894L1.66615 4.28725L0.865226 5.09717V7.40096C0.865226 7.49695 0.829229 7.58094 0.757236 7.65293C0.691242 7.71893 0.61025 7.75192 0.514259 7.75192ZM7.60292 7.79692C7.14096 7.79692 6.727 7.68893 6.36104 7.47295C5.99507 7.25097 5.7041 6.951 5.48812 6.57303C5.27814 6.19507 5.17315 5.76911 5.17315 5.29515C5.17315 4.8152 5.28114 4.38624 5.49712 4.00827C5.7191 3.63031 6.01907 3.33334 6.39703 3.11736C6.775 2.89538 7.20096 2.78439 7.67491 2.78439C8.14887 2.78439 8.57183 2.89538 8.94379 3.11736C9.32176 3.33334 9.61873 3.63031 9.83471 4.00827C10.0567 4.38624 10.1707 4.8152 10.1767 5.29515L9.8977 5.51113C9.8977 5.94309 9.79571 6.33306 9.59173 6.68102C9.39375 7.02299 9.12078 7.29597 8.77281 7.49995C8.43084 7.69793 8.04088 7.79692 7.60292 7.79692ZM7.67491 7.16698C8.02288 7.16698 8.33185 7.08599 8.60183 6.924C8.8778 6.76202 9.09378 6.54004 9.24977 6.25806C9.41175 5.97009 9.49274 5.64912 9.49274 5.29515C9.49274 4.93519 9.41175 4.61422 9.24977 4.33224C9.09378 4.05027 8.8778 3.82829 8.60183 3.66631C8.33185 3.49832 8.02288 3.41433 7.67491 3.41433C7.33295 3.41433 7.02397 3.49832 6.748 3.66631C6.47203 3.82829 6.25305 4.05027 6.09106 4.33224C5.92908 4.61422 5.84809 4.93519 5.84809 5.29515C5.84809 5.64912 5.92908 5.97009 6.09106 6.25806C6.25305 6.54004 6.47203 6.76202 6.748 6.924C7.02397 7.08599 7.33295 7.16698 7.67491 7.16698ZM9.82571 7.75192C9.72372 7.75192 9.63973 7.72193 9.57374 7.66193C9.50774 7.59594 9.47474 7.51195 9.47474 7.40995V5.8711L9.64573 5.16017L10.1767 5.29515V7.40995C10.1767 7.51195 10.1437 7.59594 10.0777 7.66193C10.0117 7.72193 9.9277 7.75192 9.82571 7.75192ZM13.7652 7.79692C13.2912 7.79692 12.8652 7.68893 12.4873 7.47295C12.1093 7.25097 11.8093 6.951 11.5874 6.57303C11.3714 6.19507 11.2634 5.76611 11.2634 5.28615C11.2634 4.8122 11.3684 4.38624 11.5784 4.00827C11.7943 3.63031 12.0853 3.33334 12.4513 3.11736C12.8173 2.89538 13.2312 2.78439 13.6932 2.78439C14.0951 2.78439 14.4581 2.87138 14.7821 3.04537C15.106 3.21335 15.367 3.43833 15.565 3.7203V1.07455C15.565 0.96656 15.598 0.882568 15.664 0.822574C15.73 0.75658 15.814 0.723583 15.916 0.723583C16.0179 0.723583 16.1019 0.75658 16.1679 0.822574C16.2339 0.882568 16.2669 0.96656 16.2669 1.07455V5.32215C16.2549 5.79011 16.1379 6.21307 15.916 6.59103C15.7 6.963 15.403 7.25697 15.025 7.47295C14.6531 7.68893 14.2331 7.79692 13.7652 7.79692ZM13.7652 7.16698C14.1131 7.16698 14.4221 7.08599 14.6921 6.924C14.968 6.75602 15.184 6.53104 15.34 6.24906C15.502 5.96709 15.583 5.64612 15.583 5.28615C15.583 4.93219 15.502 4.61422 15.34 4.33224C15.184 4.04427 14.968 3.81929 14.6921 3.65731C14.4221 3.49532 14.1131 3.41433 13.7652 3.41433C13.4232 3.41433 13.1142 3.49532 12.8382 3.65731C12.5623 3.81929 12.3433 4.04427 12.1813 4.33224C12.0193 4.61422 11.9383 4.93219 11.9383 5.28615C11.9383 5.64612 12.0193 5.96709 12.1813 6.24906C12.3433 6.53104 12.5623 6.75602 12.8382 6.924C13.1142 7.08599 13.4232 7.16698 13.7652 7.16698ZM18.382 7.75192C18.274 7.75192 18.187 7.72193 18.121 7.66193C18.061 7.59594 18.031 7.50895 18.031 7.40096V3.18035C18.031 3.07236 18.061 2.98837 18.121 2.92838C18.187 2.86238 18.274 2.82938 18.382 2.82938C18.484 2.82938 18.565 2.86238 18.625 2.92838C18.691 2.98837 18.724 3.07236 18.724 3.18035V7.40096C18.724 7.50895 18.691 7.59594 18.625 7.66193C18.565 7.72193 18.484 7.75192 18.382 7.75192ZM18.373 1.89347C18.241 1.89347 18.127 1.84548 18.031 1.74949C17.9351 1.6535 17.8871 1.53651 17.8871 1.39852C17.8871 1.24853 17.9351 1.13154 18.031 1.04755C18.133 0.957561 18.25 0.912565 18.382 0.912565C18.508 0.912565 18.619 0.957561 18.715 1.04755C18.817 1.13154 18.868 1.24853 18.868 1.39852C18.868 1.53651 18.82 1.6535 18.724 1.74949C18.628 1.84548 18.511 1.89347 18.373 1.89347ZM20.7763 4.71921C20.7943 4.34724 20.8903 4.01427 21.0643 3.7203C21.2443 3.42633 21.4753 3.19535 21.7573 3.02737C22.0452 2.85938 22.3632 2.77539 22.7112 2.77539C22.9871 2.77539 23.2001 2.81439 23.3501 2.89238C23.5001 2.97037 23.5571 3.08436 23.5211 3.23435C23.4971 3.32434 23.4551 3.38433 23.3951 3.41433C23.3411 3.44433 23.2721 3.45633 23.1881 3.45033C23.1101 3.44433 23.0201 3.43833 22.9181 3.43233C22.5822 3.40233 22.2822 3.43833 22.0182 3.54032C21.7603 3.63631 21.5533 3.7863 21.3973 3.99028C21.2473 4.19426 21.1723 4.43723 21.1723 4.71921H20.7763ZM20.8303 7.75192C20.7224 7.75192 20.6384 7.72193 20.5784 7.66193C20.5184 7.60194 20.4884 7.51794 20.4884 7.40995V3.17135C20.4884 3.06336 20.5184 2.97937 20.5784 2.91938C20.6384 2.85938 20.7224 2.82938 20.8303 2.82938C20.9383 2.82938 21.0223 2.85938 21.0823 2.91938C21.1423 2.97937 21.1723 3.06336 21.1723 3.17135V7.40995C21.1723 7.51794 21.1423 7.60194 21.0823 7.66193C21.0223 7.72193 20.9383 7.75192 20.8303 7.75192ZM26.4905 7.79692C26.0106 7.79692 25.5816 7.68893 25.2036 7.47295C24.8257 7.25697 24.5287 6.96 24.3127 6.58203C24.0968 6.20407 23.9888 5.77511 23.9888 5.29515C23.9888 4.8092 24.0968 4.37724 24.3127 3.99928C24.5287 3.62131 24.8257 3.32434 25.2036 3.10836C25.5816 2.89238 26.0106 2.78439 26.4905 2.78439C26.9705 2.78439 27.3964 2.89238 27.7684 3.10836C28.1464 3.32434 28.4433 3.62131 28.6593 3.99928C28.8753 4.37724 28.9863 4.8092 28.9923 5.29515C28.9923 5.77511 28.8813 6.20407 28.6593 6.58203C28.4433 6.96 28.1464 7.25697 27.7684 7.47295C27.3964 7.68893 26.9705 7.79692 26.4905 7.79692ZM26.4905 7.16698C26.8385 7.16698 27.1505 7.08599 27.4264 6.924C27.7024 6.76202 27.9184 6.54004 28.0744 6.25806C28.2304 5.97609 28.3084 5.65512 28.3084 5.29515C28.3084 4.93519 28.2304 4.61422 28.0744 4.33224C27.9184 4.04427 27.7024 3.81929 27.4264 3.65731C27.1505 3.49532 26.8385 3.41433 26.4905 3.41433C26.1426 3.41433 25.8306 3.49532 25.5546 3.65731C25.2786 3.81929 25.0597 4.04427 24.8977 4.33224C24.7417 4.61422 24.6637 4.93519 24.6637 5.29515C24.6637 5.65512 24.7417 5.97609 24.8977 6.25806C25.0597 6.54004 25.2786 6.76202 25.5546 6.924C25.8306 7.08599 26.1426 7.16698 26.4905 7.16698ZM31.7504 7.75192C31.6064 7.75192 31.4984 7.67393 31.4264 7.51794L29.4286 3.27934C29.3926 3.20135 29.3896 3.12336 29.4196 3.04537C29.4496 2.96737 29.5096 2.90738 29.5996 2.86538C29.6836 2.82339 29.7646 2.81739 29.8426 2.84738C29.9206 2.87738 29.9806 2.93138 30.0226 3.00937L31.9394 7.15798H31.5704L33.4602 3.00937C33.4962 2.92538 33.5562 2.87138 33.6402 2.84738C33.7302 2.81739 33.8172 2.82039 33.9012 2.85638C33.9852 2.89838 34.0422 2.96137 34.0722 3.04537C34.1022 3.12336 34.0992 3.19835 34.0632 3.27034L32.0924 7.51794C32.0204 7.67393 31.9064 7.75192 31.7504 7.75192ZM35.4827 7.75192C35.3807 7.75192 35.2967 7.71893 35.2307 7.65293C35.1647 7.58694 35.1317 7.50295 35.1317 7.40096V1.07455C35.1317 0.972559 35.1647 0.888567 35.2307 0.822574C35.2967 0.75658 35.3807 0.723583 35.4827 0.723583H37.1025C37.6185 0.723583 38.0894 0.810575 38.5154 0.984558C38.9473 1.15254 39.3193 1.39552 39.6313 1.71349C39.9432 2.02546 40.1832 2.39443 40.3512 2.82039C40.5252 3.24635 40.6122 3.7173 40.6122 4.23325C40.6122 4.7492 40.5252 5.22316 40.3512 5.65512C40.1832 6.08108 39.9432 6.45304 39.6313 6.77101C39.3193 7.08299 38.9473 7.32596 38.5154 7.49995C38.0894 7.66793 37.6185 7.75192 37.1025 7.75192H35.4827ZM35.8336 7.12198H37.1025C37.6544 7.12198 38.1404 6.99899 38.5604 6.75302C38.9863 6.50104 39.3193 6.15907 39.5593 5.72711C39.7992 5.28915 39.9192 4.7912 39.9192 4.23325C39.9192 3.67531 39.7992 3.18035 39.5593 2.74839C39.3193 2.31043 38.9863 1.96847 38.5604 1.72249C38.1404 1.47651 37.6544 1.35352 37.1025 1.35352H35.8336V7.12198ZM44.1986 7.79692C43.7127 7.79692 43.2807 7.69193 42.9027 7.48195C42.5308 7.26597 42.2368 6.969 42.0208 6.59103C41.8108 6.21307 41.7059 5.78111 41.7059 5.29515C41.7059 4.8032 41.8048 4.37124 42.0028 3.99928C42.2068 3.62131 42.4858 3.32434 42.8397 3.10836C43.1937 2.89238 43.6017 2.78439 44.0636 2.78439C44.5196 2.78439 44.9155 2.88938 45.2515 3.09936C45.5935 3.30334 45.8575 3.58831 46.0434 3.95428C46.2294 4.32024 46.3224 4.73721 46.3224 5.20516C46.3224 5.30115 46.2924 5.37915 46.2324 5.43914C46.1724 5.49313 46.0944 5.52013 45.9984 5.52013H42.1738V4.94419H46.0704L45.6835 5.22316C45.6895 4.87519 45.6265 4.56322 45.4945 4.28725C45.3625 4.01127 45.1735 3.79529 44.9275 3.63931C44.6876 3.48332 44.3996 3.40533 44.0636 3.40533C43.7217 3.40533 43.4217 3.48632 43.1637 3.64831C42.9057 3.81029 42.7048 4.03527 42.5608 4.32324C42.4228 4.60522 42.3538 4.92919 42.3538 5.29515C42.3538 5.66112 42.4318 5.98509 42.5878 6.26706C42.7498 6.54904 42.9687 6.77101 43.2447 6.933C43.5207 7.09498 43.8387 7.17598 44.1986 7.17598C44.4146 7.17598 44.6306 7.13998 44.8466 7.06799C45.0685 6.98999 45.2455 6.894 45.3775 6.78001C45.4435 6.72602 45.5185 6.69902 45.6025 6.69902C45.6865 6.69302 45.7585 6.71402 45.8185 6.76202C45.8965 6.83401 45.9355 6.912 45.9355 6.99599C45.9415 7.07999 45.9085 7.15198 45.8365 7.21197C45.6385 7.37996 45.3865 7.52094 45.0805 7.63493C44.7746 7.74292 44.4806 7.79692 44.1986 7.79692ZM49.0017 7.75192C48.8577 7.75192 48.7497 7.67393 48.6777 7.51794L46.6799 3.27934C46.6439 3.20135 46.6409 3.12336 46.6709 3.04537C46.7009 2.96737 46.7609 2.90738 46.8509 2.86538C46.9349 2.82339 47.0159 2.81739 47.0939 2.84738C47.1719 2.87738 47.2319 2.93138 47.2739 3.00937L49.1907 7.15798H48.8217L50.7115 3.00937C50.7475 2.92538 50.8075 2.87138 50.8915 2.84738C50.9815 2.81739 51.0685 2.82039 51.1525 2.85638C51.2365 2.89838 51.2935 2.96137 51.3235 3.04537C51.3535 3.12336 51.3505 3.19835 51.3145 3.27034L49.3437 7.51794C49.2717 7.67393 49.1577 7.75192 49.0017 7.75192Z" fill="#80007F"/>
</svg>
